# xmcd
#
# Track frame offsets:
# 150
# 17387
# 40216
# 57717
# 77957
# 97786
# 121372
# 137741
# 154129
# 171454
# 191153
#
# Disc length: 2817 seconds
#
#
# Revision: 3
# Processed by: cddbd v1.5.2PL0 Copyright (c) Steve Scherf et al.
# Submitted via: FreeRIP 2.945 
#
DISCID=930aff0b
DTITLE=Lucie - Slunecnice
DYEAR=1900
DGENRE=
TTITLE0=Pojd se mnou do chramu ticha
TTITLE1=Ona vi
TTITLE2=Zakousnutej do tebe
TTITLE3=Hvezda
TTITLE4=Veverka
TTITLE5=Slunecnice
TTITLE6=Karibi
TTITLE7=Mohu te jenom milovat
TTITLE8=Noc
TTITLE9=Vune
TTITLE10=Touha
EXTD=
EXTT0=
EXTT1=
EXTT2=
EXTT3=
EXTT4=
EXTT5=
EXTT6=
EXTT7=
EXTT8=
EXTT9=
EXTT10=
PLAYORDER=
